<svg width="49" height="28" viewBox="0 0 49 28" fill="none" xmlns="http://www.w3.org/2000/svg">
<path d="M0 28H49V0H0V28Z" fill="black"/>
<path d="M0.567383 27.4978H48.4778V0.509644H0.567383V27.4978Z" fill="white"/>
<path d="M11.1353 15.4592L12.0621 16.4155L13.0199 15.4655H13.7872V15.7591L12.587 16.9535L13.7872 18.2306V15.4655H15.9536C16.3633 15.4655 16.9641 15.636 16.9641 16.4005C16.9641 17.473 16.1736 17.4858 15.7407 17.4858H14.6157V18.5242H13.0122L12.0326 17.5066L11.0291 18.5167H7.84073V15.4586H11.1353V15.4592V15.4592ZM20.9501 15.4592H23.6824V16.1185H21.7863V16.6912H23.6297V17.2714H21.7863V17.877H23.6824V18.5172H20.9501V15.4592V15.4592ZM18.1958 18.5248H17.3597V15.4661H19.5331C19.9441 15.4661 20.5365 15.6302 20.5365 16.2849C20.5365 16.6548 20.4149 16.927 19.9589 17.1321C20.3538 17.1731 20.5063 17.4054 20.5063 17.8966L20.5365 18.5248H19.7228L19.7003 17.9642C19.6932 17.7053 19.5787 17.4459 19.2906 17.4459H18.1958V18.5248V18.5248ZM28.9298 16.6513C29.9583 16.6975 30.0432 17.1593 30.0432 17.6504C30.0432 18.2237 29.519 18.5311 28.9716 18.5311H27.2163V17.8764H28.5844C28.8166 17.8764 29.162 17.8764 29.162 17.5817C29.162 17.4418 29.1009 17.3534 28.8539 17.3292C28.662 17.3124 28.4696 17.3004 28.2769 17.2933C27.3488 17.2714 27.1333 16.857 27.1333 16.352C27.1333 15.7787 27.5816 15.465 28.129 15.465H29.8843V16.1208H28.5998C28.3078 16.1243 27.992 16.0896 27.992 16.3872C27.992 16.5745 28.1483 16.612 28.3451 16.6299C28.4133 16.6305 28.8693 16.6513 28.9298 16.6513V16.6513ZM25.7986 16.6513C26.8265 16.6975 26.912 17.1593 26.912 17.6504C26.912 18.2237 26.3872 18.5311 25.8404 18.5311H24.0845V17.8764H25.4526C25.6841 17.8764 26.0308 17.8764 26.0308 17.5817C26.0308 17.4418 25.9697 17.3534 25.7227 17.3292C25.6121 17.3153 25.2056 17.2945 25.1458 17.2933C24.2176 17.2714 24.0021 16.857 24.0021 16.352C24.0021 15.7787 24.4504 15.465 24.9972 15.465H26.7532V16.1208H25.4687C25.176 16.1243 24.8608 16.0896 24.8608 16.3872C24.8608 16.5745 25.0165 16.612 25.2146 16.6299C25.2821 16.6305 25.7382 16.6513 25.7986 16.6513V16.6513ZM14.7829 13.2673H13.9468V10.2087H16.1202C16.5306 10.2087 17.1242 10.3728 17.1242 11.0275C17.1242 11.3968 17.0027 11.6701 16.5466 11.8747C16.9416 11.9157 17.094 12.148 17.094 12.6392L17.1242 13.2673H16.3112L16.2881 12.7074C16.2803 12.4479 16.1671 12.189 15.8777 12.189H14.7836V13.2673H14.7829V13.2673ZM17.55 13.2673H18.3856V10.2052H17.55V13.2673ZM10.7358 10.2087H13.4676V10.8674H11.5733V11.4413H13.4155V12.022H11.5733V12.6259H13.4676V13.2673H10.7358V10.2087V10.2087ZM4.63495 13.2673H6.31825V10.9975L7.43486 13.2673H8.19514L9.33813 11.035V13.2673H10.1737V10.2087H8.84029L7.81436 12.2607L6.79229 10.2087H5.48142V13.1546L4.02197 10.2087H2.91693L1.42725 13.2673H2.30909L2.6352 12.5849H4.30306L4.63495 13.2673V13.2673ZM23.1955 12.5866H21.5283L21.2016 13.2691H20.0991C19.1722 13.2691 18.7612 12.571 18.7812 11.7244C18.8095 10.4681 19.636 10.2069 20.0161 10.2069H21.107V10.8726H20.5905C20.0354 10.8726 19.6025 10.9246 19.6025 11.6412V11.8631C19.6064 12.4023 19.9209 12.53 20.1223 12.5675C20.1718 12.5779 20.2631 12.582 20.2966 12.5797L20.6581 12.5779L21.8094 10.2087H22.9157L24.3405 13.0795V10.2069H25.5748L26.9847 12.3248V10.2069H27.8202V13.2691H26.6805L25.176 11.0292V13.2691H23.5268L23.1955 12.5866V12.5866Z" fill="black"/>
<path d="M29.8914 14.9888V1.37427H1.49927V11.9019L2.56379 9.74526H4.3725L4.96555 11.0281V9.74526H7.16856L7.8375 11.0154L8.491 9.74526H16.2578C16.5614 9.74526 16.9718 9.84118 17.1551 10.1411V9.74526H18.7811V10.2093C18.994 9.9504 19.3131 9.74526 19.9357 9.74526H23.2495L23.8574 10.9871V9.74526H25.8185L26.5171 10.8241V9.74526H28.3104V13.7314H26.3807L25.5748 12.5577V13.7314H23.128L22.733 12.953H21.9573L21.5926 13.7314H20.0573C19.7228 13.7048 18.9484 13.5811 18.7811 13.1177V13.7314H15.8326V12.8582C15.8326 12.7346 15.7111 12.5849 15.5438 12.5849H15.2248V13.7314H8.94704V12.8305L8.47621 13.7314H7.19943L6.71316 12.8166V13.7314H4.20527L3.8708 13.0218H3.06485L2.71559 13.7314H1.49927V26.608H29.8914V18.7161C29.7396 18.8669 29.4964 18.9894 29.1317 18.9894H26.7596V18.6889C26.5775 18.8669 26.3196 18.9894 25.9086 18.9894H19.2217V18.1567C19.2063 18.0469 19.2674 17.8152 18.9329 17.8152H18.6596V18.9894H16.8811V17.6366C16.6984 17.9111 16.3041 17.9238 16.0456 17.9377H15.1026V18.9894H12.7317L12.0473 18.2382L11.3179 18.9894H7.29077V14.9888H11.379L12.093 15.7123L12.8231 14.9888H16.0603C16.288 15.0015 16.7209 15.0975 16.8811 15.3159V14.9888H19.6476C19.8907 14.9888 20.3615 15.0836 20.5596 15.3702V14.9888H24.0246V15.3431C24.2067 15.1252 24.4961 14.9888 24.9361 14.9888H27.1551V15.3303C27.3224 15.1113 27.7636 14.9888 28.0222 14.9888H29.8914V14.9888ZM37.7051 14.641C37.7051 15.1524 35.5382 14.5884 35.5382 15.8319C35.5382 16.4 36.0495 16.6571 36.6245 16.6571C37.078 16.6571 37.426 16.5728 37.7695 16.2856L37.893 16.578H38.9858C38.9234 16.4716 38.9137 16.333 38.9137 16.1769V14.8975C38.9137 14.2445 38.8263 13.7643 37.3855 13.7643C36.1827 13.7643 35.7234 14.1035 35.7234 14.6826H36.8857C36.9146 14.4479 37.1417 14.4173 37.3102 14.4173C37.4388 14.4173 37.7051 14.4433 37.7051 14.641V14.641ZM43.9932 16.2093V16.5751H45.0789V12.8155H43.8716V14.1157C43.615 13.8441 43.3481 13.7609 42.9647 13.7609C42.2379 13.7609 41.6744 14.3503 41.6744 15.2593C41.6744 16.0319 42.1395 16.6531 43.0573 16.6531C43.4478 16.6531 43.7089 16.5439 43.9932 16.2093V16.2093ZM41.3612 14.7022V13.7765C41.3091 13.7713 41.2563 13.7609 41.2036 13.7609C40.734 13.7609 40.4369 13.9643 40.2683 14.393H40.2568V13.8395H39.1588V16.5745H40.3668V15.4974C40.3668 14.9074 40.617 14.6982 41.111 14.6982L41.3612 14.7022V14.7022ZM34.1475 14.2457C34.1064 13.8551 33.833 13.6303 33.4033 13.6303C32.9209 13.6303 32.6302 14.0013 32.6302 14.7265C32.6302 15.2541 32.7582 15.7493 33.4548 15.7493C33.8973 15.7493 34.1064 15.4737 34.1591 15.1131H35.4777C35.3568 16.0839 34.583 16.6675 33.4799 16.6675C32.097 16.6675 31.2595 15.9071 31.2595 14.6843C31.2595 13.4679 32.1774 12.7109 33.3461 12.7109C34.6241 12.7109 35.3394 13.2801 35.45 14.2451H34.1475V14.2457V14.2457Z" fill="black"/>
<path d="M14.6164 16.8587H15.6578C15.9993 16.8587 16.1209 16.6807 16.1209 16.4761C16.1209 16.3259 16.0109 16.1254 15.661 16.1254H14.6164V16.8587ZM10.5732 16.1184H8.6776V16.6911H10.5198V17.2713H8.6776V17.8769H10.604L11.5238 16.954L10.7102 16.1213L10.5732 16.1184ZM18.1959 16.8182H19.2372C19.5788 16.8182 19.7004 16.6813 19.7004 16.4761C19.7004 16.3259 19.5904 16.1254 19.2405 16.1254H18.1959V16.8182V16.8182ZM14.783 11.5608H15.8244C16.1665 11.5608 16.2875 11.4244 16.2875 11.2193C16.2875 11.0696 16.1775 10.8673 15.8276 10.8673H14.783V11.5608V11.5608ZM3.98021 11.9266H2.96265L3.46178 10.8569L3.98021 11.9266ZM22.353 10.8587L21.8551 11.9277H22.8766L22.353 10.8587Z" fill="white"/>
<path d="M47.3276 17.4128L37.0999 26.6009H38.5522L47.3276 18.7177V17.4128Z" fill="black"/>
<path d="M47.3277 19.9839L39.9629 26.601H41.414L47.3277 21.2893V19.9839Z" fill="black"/>
<path d="M47.3279 22.5554L42.8235 26.6011H44.2771L47.3279 23.8597V22.5554Z" fill="black"/>
<path d="M30.9302 25.154C30.9306 24.9632 30.9729 24.7744 31.0546 24.5982C31.1363 24.4221 31.2558 24.2622 31.4063 24.1276C31.5569 23.993 31.7354 23.8864 31.9319 23.8138C32.1283 23.7413 32.3387 23.7042 32.5511 23.7047C32.763 23.7046 32.9728 23.7419 33.1686 23.8147C33.3644 23.8875 33.5423 23.9943 33.6921 24.1289C33.842 24.2635 33.9608 24.4233 34.0418 24.5992C34.1228 24.7751 34.1644 24.9636 34.1643 25.154C34.1652 25.3449 34.1242 25.5341 34.0435 25.7108C33.9629 25.8874 33.8442 26.048 33.6944 26.1833C33.5445 26.3187 33.3663 26.4261 33.1701 26.4995C32.974 26.5728 32.7636 26.6107 32.5511 26.6108C32.3381 26.611 32.1271 26.5735 31.9303 26.5004C31.7335 26.4272 31.5547 26.3199 31.4041 26.1846C31.2536 26.0493 31.1342 25.8886 31.0529 25.7117C30.9715 25.5349 30.9298 25.3454 30.9302 25.154V25.154Z" fill="black"/>
<path d="M33.9696 25.154C33.9697 24.9867 33.933 24.821 33.8618 24.6664C33.7905 24.5118 33.6861 24.3713 33.5543 24.253C33.4226 24.1347 33.2662 24.0409 33.0941 23.977C32.922 23.9131 32.7375 23.8802 32.5513 23.8804C32.3648 23.8799 32.18 23.9125 32.0075 23.9763C31.835 24.0401 31.6782 24.1338 31.5461 24.2521C31.414 24.3705 31.3092 24.511 31.2377 24.6658C31.1661 24.8205 31.1292 24.9864 31.1292 25.154C31.1292 25.4924 31.2788 25.8169 31.5451 26.0562C31.8115 26.2955 32.1727 26.4299 32.5494 26.4299C32.926 26.4299 33.2873 26.2955 33.5536 26.0562C33.82 25.8169 33.9696 25.4924 33.9696 25.154V25.154Z" fill="white"/>
<path d="M33.3551 25.9681H33.0933L32.5756 25.2186H32.1703V25.9681H31.9497V24.3431H32.737C32.8894 24.3431 33.0419 24.3512 33.1776 24.4235C33.3133 24.4922 33.3802 24.6367 33.3802 24.7731C33.3802 25.0932 33.1313 25.2111 32.809 25.2186L33.3551 25.9681V25.9681Z" fill="black"/>
<path d="M32.5092 25.0628C32.7633 25.0628 33.1569 25.1009 33.1569 24.7692C33.1569 24.5184 32.9112 24.4884 32.6868 24.4884H32.1709V25.0628H32.5092ZM37.7051 15.3667C37.7083 15.8787 37.5334 16.0405 37.1095 16.0405C36.8709 16.0405 36.7255 15.9464 36.7255 15.8111C36.7261 15.4552 37.3108 15.539 37.7051 15.3667V15.3667ZM43.9121 15.2333C43.9121 15.5511 43.779 15.8695 43.3603 15.8695C42.966 15.8695 42.8849 15.5361 42.8849 15.2483C42.8849 14.9466 42.9949 14.6011 43.3963 14.6011C43.7964 14.6011 43.9121 14.9299 43.9121 15.2333Z" fill="white"/>
</svg>
