<svg width="58" height="27" viewBox="0 0 58 27" fill="none" xmlns="http://www.w3.org/2000/svg">
<path d="M9.04052 5.96278C9.69354 5.69832 10.3901 5.55727 11.1128 5.55727C14.2763 5.55727 16.9174 8.28654 17.5211 11.915L22.0052 10.8042C20.9778 4.64046 16.4908 0 11.1128 0C9.87929 0 8.69804 0.243307 7.58936 0.694659L9.04052 5.96278Z" fill="white"/>
<path d="M3.74981 23.6149L6.78274 19.4504C5.43026 17.9941 4.57697 15.8678 4.57697 13.4982C4.57697 11.1322 5.43026 9.00587 6.78274 7.55309L3.74981 3.38513C1.45116 5.86052 0 9.47486 0 13.4982C0 17.5251 1.45116 21.1395 3.74981 23.6149" fill="white"/>
<path d="M17.5211 15.0922C16.9145 18.7171 14.2763 21.4428 11.1157 21.4428C10.3901 21.4428 9.69064 21.3018 9.04052 21.0338L7.58936 26.309C8.69804 26.7568 9.88219 27.0001 11.1157 27.0001C16.4879 27.0001 20.972 22.3667 22.0052 16.21L17.5211 15.0922Z" fill="white"/>
<path d="M25.9265 19.6233C25.7785 19.3341 25.5811 18.8722 25.4592 18.5302C24.7481 16.5273 24.7162 14.4539 25.3141 12.4651C25.9729 10.2824 27.2325 8.61452 28.8607 7.76119C30.9069 6.69275 33.1678 6.9008 35.1298 8.3148C36.3749 9.18224 37.2572 10.5222 37.9276 12.4193C38.0118 12.6626 38.0872 12.92 38.1627 13.1421L25.9265 19.6233ZM30.013 10.9806C28.5589 11.7387 27.8101 13.396 27.9668 15.3354L34.1198 12.116C33.0604 10.6068 31.6847 10.1061 30.013 10.9806V10.9806ZM34.886 17.9836C34.8831 17.9836 34.8831 17.9871 34.8831 17.9871L34.7554 17.8813C34.3868 18.6042 33.815 19.1931 33.0923 19.5739C31.7166 20.3003 30.4425 20.1134 29.5254 19.1367L29.4412 19.2918C29.4412 19.2918 29.4412 19.2883 29.4383 19.2883L27.8769 22.1269C28.2658 22.4548 28.6808 22.7299 29.1161 22.952C30.8401 23.823 32.6047 23.7807 34.3432 22.8638C35.5999 22.2009 36.5867 21.1924 37.2601 19.9124L34.886 17.9836ZM42.4378 3.58618V19.3623L44.4579 20.3567L43.3114 23.6079L41.0824 22.4795C40.5832 22.215 40.2408 21.813 39.9854 21.3582C39.7387 20.8962 39.5558 20.258 39.5558 19.4047V3.58618H42.4378ZM47.6678 15.346C47.6678 14.0025 48.1583 12.7966 48.9303 11.9785L46.8581 9.17166C45.4534 10.6809 44.5681 12.8847 44.5681 15.339C44.5652 17.7967 45.4505 20.0041 46.8523 21.5133L48.9216 18.7065C48.1525 17.8849 47.6678 16.686 47.6678 15.346V15.346ZM51.348 19.8207C50.9417 19.8207 50.5469 19.7361 50.1812 19.588L49.1916 23.16C49.8678 23.4351 50.5905 23.5867 51.3451 23.5867C54.6247 23.5902 57.3616 20.7622 57.9972 17.0068L54.9556 16.2522C54.6102 18.2939 53.1271 19.8243 51.348 19.8207V19.8207ZM51.3567 7.10532C50.605 7.10532 49.8823 7.25342 49.2061 7.52493L50.1871 11.1005C50.5556 10.9524 50.9475 10.8713 51.3538 10.8713C53.1358 10.8748 54.6218 12.4122 54.9585 14.4574L58.0001 13.7099C57.3761 9.94742 54.6392 7.10884 51.3567 7.10532V7.10532Z" fill="white"/>
</svg>
